<svg height="512pt" viewBox="-64 0 512 512" width="512pt" xmlns="http://www.w3.org/2000/svg"><path d="m145.195312 81.542969-62.449218-62.449219c-5.769532-5.765625-15.121094-5.765625-20.886719 0l-55.699219 55.699219c-5.765625 5.765625-5.765625 15.121093 0 20.886719l47.589844 47.589843c2.835938 2.835938 6.617188 4.328125 10.445312 4.328125 2.242188 0 4.503907-.511718 6.601563-1.558594l68.730469-34.367187c3.71875-1.859375 6.480468-5.195313 7.609375-9.195313l1.828125-6.472656c1.453125-5.148437.011718-10.679687-3.769532-14.460937zm0 0" fill="#6f6b6e"/><path d="m156.554688 0c-6.613282 0-12.417969 4.394531-14.214844 10.757812l-21.855469 77.410157-112.320313 56.160156c-5.003906 2.5-8.164062 7.617187-8.164062 13.210937v305.230469c0 3.988281 1.613281 7.808594 4.472656 10.589844l35.449219 34.460937c2.753906 2.679688 6.449219 4.179688 10.292969 4.179688h141.785156l9.855469-256.984375-9.855469-255.015625zm0 0" fill="#fc9d21"/><path d="m378.09375 32.492188-39.386719-29.539063c-2.554687-1.917969-5.664062-2.953125-8.859375-2.953125h-137.847656v512h141.785156c3.84375 0 7.539063-1.5 10.292969-4.179688l35.449219-34.460937c2.859375-2.78125 4.472656-6.601563 4.472656-10.589844v-418.460937c0-4.648438-2.1875-9.027344-5.90625-11.816406zm0 0" fill="#f96225"/><path d="m73.847656 182.152344c-8.15625 0-14.769531 6.613281-14.769531 14.769531v236.308594c0 8.15625 6.613281 14.769531 14.769531 14.769531h118.152344l9.855469-130.460938-9.855469-135.386718zm0 0" fill="#fef4f4"/><path d="m310.152344 182.152344h-118.152344v265.847656h118.152344c8.15625 0 14.769531-6.613281 14.769531-14.769531v-236.308594c0-8.15625-6.613281-14.769531-14.769531-14.769531zm0 0" fill="#f7e7e7"/><path d="m177.230469 339.691406v34.460938c0 8.15625 6.613281 14.769531 14.769531 14.769531l9.855469-32-9.855469-32c-8.15625 0-14.769531 6.613281-14.769531 14.769531zm0 0" fill="#8adc67"/><path d="m192 324.921875v64c8.15625 0 14.769531-6.613281 14.769531-14.769531v-34.460938c0-8.15625-6.613281-14.769531-14.769531-14.769531zm0 0" fill="#65c638"/><path d="m181.554688 250.476562-23.070313 23.078126c-18.480469 18.472656-18.480469 48.542968 0 67.023437 5.347656 5.347656 11.753906 9.265625 18.746094 11.550781 4.695312 1.535156 9.679687 2.332032 14.769531 2.332032l9.855469-54.152344-9.855469-54.152344c-3.78125 0-7.5625 1.441406-10.445312 4.320312zm0 0" fill="#18af63"/><path d="m225.515625 273.554688-23.070313-23.078126c-2.882812-2.878906-6.664062-4.320312-10.445312-4.320312v108.304688c5.089844 0 10.074219-.796876 14.769531-2.332032 6.992188-2.285156 13.398438-6.203125 18.746094-11.550781 18.480469-18.480469 18.480469-48.550781 0-67.023437zm0 0" fill="#0a9f5c"/><path d="m187.519531 70.265625-4.925781 19.691406c-1.101562 4.410157-.109375 9.085938 2.6875 12.671875 1.753906 2.246094 4.097656 3.90625 6.71875 4.832032l9.855469-22.308594-9.855469-22.304688c-2.144531 1.921875-3.746094 4.46875-4.480469 7.417969zm0 0" fill="#6f6b6e"/><path d="m310.152344 59.078125h-108.304688c-3.738281 0-7.207031 1.40625-9.847656 3.769531v44.613282c1.5625.554687 3.226562.847656 4.921875.847656h113.230469c8.15625 0 14.769531-6.613282 14.769531-14.769532v-19.691406c0-8.15625-6.613281-14.769531-14.769531-14.769531zm0 0" fill="#242627"/></svg>