<svg height="512pt" viewBox="-62 0 512 512" width="512pt" xmlns="http://www.w3.org/2000/svg"><path d="m279.90625 0h-85.664062l-20.015626 108.660156 105.679688-20.015625zm0 0" fill="#b4d2d7"/><path d="m108.574219 0v88.644531l85.667969 20.015625v-108.660156zm0 0" fill="#e1ebf0"/><path d="m248.015625 85.046875h-53.773437l-20.015626 210.644531 20.015626 216.308594h96.535156l88.707031-237.507812c34.257813-91.71875-33.5625-189.445313-131.46875-189.445313zm0 0" fill="#e1ebf0"/><path d="m140.46875 85.046875c-97.910156 0-165.730469 97.722656-131.472656 189.445313l88.707031 237.507812h96.539063v-426.953125zm0 0" fill="#fff5f5"/><path d="m174.226562 275.675781 20.015626 93.285157c41.585937 0 75.417968-33.832032 75.417968-75.421876 0-14.808593-3.023437-28.542968-7.855468-41.035156zm0 0" fill="#00969b"/><path d="m126.679688 252.503906c-4.832032 12.496094-7.859376 26.226563-7.859376 41.035156 0 41.585938 33.832032 75.421876 75.421876 75.421876v-93.285157zm0 0" fill="#00cc76"/><path d="m194.242188 172.371094-20.015626 71.960937 20.015626 51.359375 67.5625-43.1875c-19.3125-49.953125-67.5625-80.132812-67.5625-80.132812zm0 0" fill="#00cc76"/><path d="m194.242188 172.371094s-48.25 30.179687-67.5625 80.132812l67.5625 43.1875zm0 0" fill="#c5f0b2"/></svg>