<svg height="511pt" viewBox="0 -33 511.99926 511" width="511pt" xmlns="http://www.w3.org/2000/svg"><path d="m233.492188 112.585938 22.507812 102.476562c45.390625 0 82.316406-36.925781 82.316406-82.316406 0-16.164063-3.300781-31.152344-8.574218-44.789063zm0 0" fill="#00969b"/><path d="m182.257812 87.957031c-5.273437 13.636719-8.574218 28.625-8.574218 44.789063 0 45.390625 36.925781 82.316406 82.316406 82.316406v-102.476562zm0 0" fill="#00cc76"/><path d="m256 .5-22.507812 67.296875 22.507812 67.296875 73.742188-47.136719c-21.082032-54.519531-73.742188-87.457031-73.742188-87.457031zm0 0" fill="#00cc76"/><path d="m256 .5s-52.664062 32.9375-73.742188 87.457031l73.742188 47.136719zm0 0" fill="#c5f0b2"/><path d="m135.515625 244.070312-62.515625 71.449219-18.269531 123.582031c45.214843 18.730469 97.054687-2.742187 115.785156-47.957031l46.871094-113.164062zm0 0" fill="#e1ebf0"/><path d="m53.640625 210.15625-46.871094 113.160156c-18.730469 45.21875 2.742188 97.054688 47.960938 115.785156l80.785156-195.03125zm0 0" fill="#fff5f5"/><path d="m458.359375 210.15625 46.871094 113.160156c18.730469 45.21875-2.742188 97.054688-47.960938 115.785156l-80.785156-79.914062v-115.117188zm0 0" fill="#d10050"/><path d="m376.484375 244.070312 80.785156 195.03125c-45.214843 18.730469-97.054687-2.742187-115.785156-47.957031l-46.871094-113.164062zm0 0" fill="#ff5b5b"/></svg>